<svg width="30" height="30" viewBox="0 0 30 30" fill="none" xmlns="http://www.w3.org/2000/svg">
<ellipse cx="23.9481" cy="22.2302" rx="3.452" ry="3.45324" fill="#60A5FA"/>
<path d="M16.7139 24.0098C16.8925 23.9756 17.0771 23.957 17.2656 23.957C18.877 23.9573 20.1836 25.264 20.1836 26.876C20.1836 28.3913 19.0288 29.6362 17.5518 29.7803C16.7206 29.9232 15.866 30 14.9941 30C6.71306 29.9997 0 23.2841 0 15C5.15245e-07 6.71589 6.71306 0.000262944 14.9941 0C23.0428 0 29.61 6.34373 29.9727 14.3057C29.9889 14.4306 30 14.5581 30 14.6875C29.9998 16.3023 28.6914 17.6111 27.0771 17.6113C25.4627 17.6113 24.1536 16.3024 24.1533 14.6875C24.1533 14.6628 24.1547 14.6378 24.1553 14.6133C24.1552 14.6182 24.1544 14.623 24.1543 14.6279C23.9591 9.73455 19.9336 5.82715 14.9941 5.82715C9.93023 5.82738 5.8252 9.93422 5.8252 15C5.8252 20.0658 9.93023 24.1726 14.9941 24.1729C15.5822 24.1729 16.1567 24.1144 16.7139 24.0078V24.0098ZM14.3994 26.3311C14.3915 26.373 14.386 26.4154 14.3799 26.458C14.386 26.4154 14.3915 26.373 14.3994 26.3311ZM14.4648 26.0576C14.4515 26.1033 14.4408 26.1497 14.4297 26.1963C14.4408 26.1497 14.4515 26.1033 14.4648 26.0576ZM14.5459 25.8193C14.5325 25.8537 14.5209 25.8888 14.5088 25.9238C14.5209 25.8888 14.5325 25.8538 14.5459 25.8193ZM14.6553 25.5742C14.6391 25.6065 14.6234 25.6389 14.6084 25.6719C14.6233 25.6389 14.6392 25.6065 14.6553 25.5742ZM14.7842 25.3438C14.7651 25.3745 14.7455 25.405 14.7275 25.4365C14.7455 25.405 14.7651 25.3746 14.7842 25.3438ZM14.9316 25.1279C14.9097 25.1571 14.887 25.1858 14.8662 25.2158C14.887 25.1858 14.9097 25.1572 14.9316 25.1279ZM15.3779 24.6504C15.36 24.6656 15.3437 24.6826 15.3262 24.6982C15.3437 24.6826 15.36 24.6656 15.3779 24.6504ZM15.5791 24.4951C15.5639 24.5059 15.5492 24.5173 15.5342 24.5283C15.5492 24.5172 15.5639 24.5059 15.5791 24.4951ZM15.8066 24.3496C15.7816 24.3641 15.757 24.3793 15.7324 24.3945C15.757 24.3793 15.7816 24.3641 15.8066 24.3496ZM16.0361 24.2305C16.0096 24.2428 15.9832 24.2554 15.957 24.2686C15.9832 24.2554 16.0096 24.2428 16.0361 24.2305ZM16.2744 24.1328C16.2497 24.1417 16.2246 24.1496 16.2002 24.1592C16.2246 24.1496 16.2497 24.1418 16.2744 24.1328ZM16.5322 24.0527C16.5039 24.0601 16.4753 24.0661 16.4473 24.0742C16.4753 24.0661 16.5039 24.0601 16.5322 24.0527Z" fill="#60A5FA"/>
</svg>
