<svg width="279" height="278" viewBox="0 0 279 278" fill="none" xmlns="http://www.w3.org/2000/svg">
<circle cx="222" cy="206" r="32" fill="#60A5FA"/>
<path fill-rule="evenodd" clip-rule="evenodd" d="M162.921 275.949C155.149 277.297 147.157 278 139 278C62.2324 278 0 215.768 0 139C0 62.2324 62.2324 0 139 0C213.543 0 274.38 58.6773 277.844 132.363C278.013 133.584 278.1 134.832 278.1 136.1C278.1 151.067 265.967 163.2 251 163.2C236.033 163.2 223.9 151.067 223.9 136.1C223.9 135.79 223.905 135.481 223.915 135.174C221.915 90.0054 184.662 54 139 54C92.0558 54 54 92.0558 54 139C54 185.944 92.0558 224 139 224C144.108 224 149.111 223.549 153.97 222.686C155.925 222.237 157.96 222 160.05 222C174.989 222 187.1 234.111 187.1 249.05C187.1 263.02 176.511 274.516 162.921 275.949Z" fill="#60A5FA"/>
</svg>
